<svg width="1920" height="1080" version="1.1" xmlns="http://www.w3.org/2000/svg" desc="Created with imagetracer.js version 1.2.6" ><path fill="rgb(0,0,0)" stroke="rgb(0,0,0)" stroke-width="1" opacity="0" d="M 0 0 L 1920 0 L 1920 1080 L 0 1080 L 0 0 Z M 974 345 L 949 379 L 948 379 L 933 364 L 916 381 L 915 385 Q 928 400 953 404 L 968 404 L 983 400 Q 996 394 1005 384 L 974 345 Z M 893 408 L 865 440 L 865 442 Q 882 460 908 470 L 930 477 L 940 479 L 948 479 L 949 480 L 972 480 Q 973 477 980 479 L 1005 473 Q 1034 462 1055 442 L 1028 408 L 1026 408 Q 1018 417 1008 423 L 994 430 L 981 434 L 970 435 L 969 436 L 944 435 L 929 431 L 911 422 L 893 408 Z M 844 465 L 816 498 Q 840 520 872 535 L 901 546 L 922 551 L 934 552 L 935 553 L 945 553 L 946 554 L 975 554 L 976 553 L 985 553 L 1008 549 L 1032 542 Q 1074 526 1103 498 L 1102 495 L 1077 466 L 1046 489 L 1026 499 L 999 508 L 982 511 L 973 511 L 972 512 L 948 512 L 947 511 L 932 510 L 902 502 Q 867 489 844 465 Z M 1111 616 L 1101 619 L 1096 624 L 1093 634 L 1093 644 L 1097 655 L 1106 660 Q 1120 662 1127 657 L 1131 651 L 1133 643 Q 1134 630 1129 623 L 1124 618 L 1111 616 Z M 1153 616 L 1144 618 L 1140 620 L 1137 627 L 1138 635 L 1144 639 L 1157 642 L 1164 645 L 1165 648 L 1164 651 L 1160 654 Q 1153 655 1150 653 L 1146 649 L 1146 644 L 1137 644 Q 1136 651 1139 655 Q 1142 659 1148 660 Q 1162 662 1170 657 L 1174 649 L 1173 643 L 1169 638 L 1148 632 Q 1145 631 1146 627 L 1151 623 Q 1158 622 1162 624 L 1164 628 L 1164 632 L 1174 632 L 1173 626 L 1170 621 L 1164 617 L 1153 616 Z M 745 617 L 757 659 L 758 660 L 770 660 L 782 620 L 782 617 L 773 617 L 764 653 L 754 621 L 754 617 L 745 617 Z M 794 617 L 781 658 L 782 660 L 790 660 L 793 651 L 794 649 L 809 649 L 812 659 L 813 660 L 821 660 L 808 620 L 808 617 L 794 617 Z M 826 617 L 826 660 L 853 660 L 853 654 L 835 654 L 835 618 L 835 617 L 826 617 Z M 858 617 L 858 660 L 885 660 L 885 654 L 867 654 L 867 618 L 867 617 L 858 617 Z M 890 617 L 890 660 L 921 660 L 921 660 L 921 654 L 901 654 L 899 653 L 899 641 L 919 641 L 919 636 L 919 635 L 899 635 L 899 623 L 921 623 L 921 618 L 921 617 L 890 617 Z M 943 617 L 943 660 L 944 660 L 952 660 L 953 626 L 961 655 L 962 658 L 973 658 L 981 627 L 982 627 L 982 660 L 983 660 L 991 660 L 991 617 L 976 617 L 968 648 Q 969 651 966 650 L 958 621 L 958 617 L 943 617 Z M 998 617 L 998 660 L 1028 660 L 1028 655 L 1028 654 L 1007 654 L 1007 641 L 1027 641 L 1027 636 L 1027 635 L 1007 635 L 1007 623 L 1028 623 L 1028 618 L 1028 617 L 998 617 Z M 1034 617 L 1034 660 L 1060 660 L 1066 657 L 1070 648 L 1070 630 L 1067 622 L 1060 617 L 1034 617 Z M 1077 617 L 1077 660 L 1078 660 L 1086 660 L 1086 618 L 1086 617 L 1077 617 Z M 968 672 L 964 676 L 965 677 L 970 673 L 968 672 Z M 966 677 L 957 680 Q 951 684 950 692 Q 948 708 954 717 L 962 721 Q 973 723 979 718 Q 983 714 984 708 Q 986 692 981 684 L 974 678 L 966 677 Z M 1089 677 L 1080 680 L 1075 687 L 1073 697 L 1074 710 L 1077 717 L 1085 721 Q 1095 723 1100 719 L 1105 711 L 1105 704 L 1101 704 Q 1102 711 1099 715 L 1095 718 Q 1087 720 1084 717 L 1078 710 L 1078 690 L 1080 685 L 1088 680 Q 1094 679 1097 682 L 1101 689 L 1101 695 L 1105 695 Q 1106 688 1103 684 L 1097 678 L 1089 677 Z M 777 678 L 777 721 L 781 721 L 781 702 L 801 702 L 801 699 L 781 699 L 781 681 L 803 681 L 803 678 L 777 678 Z M 810 678 L 810 721 L 814 721 L 814 679 L 810 678 Z M 823 678 L 823 721 L 849 721 L 852 719 L 854 713 Q 855 705 852 701 L 848 698 L 851 696 L 853 692 Q 854 683 851 679 L 849 678 L 823 678 Z M 861 678 L 861 721 L 865 721 L 865 702 L 878 702 L 885 721 L 890 721 L 882 703 Q 881 700 885 701 L 888 698 L 890 691 L 888 682 L 884 678 L 861 678 Z M 910 678 L 906 685 L 896 717 L 894 720 Q 893 722 898 721 L 902 711 L 903 708 L 921 708 L 925 720 L 925 721 L 929 721 L 915 680 Q 916 677 910 678 Z M 990 678 L 990 721 L 994 721 L 994 708 L 1010 708 L 1013 707 L 1018 700 Q 1020 688 1016 682 L 1012 678 L 990 678 Z M 1023 678 L 1024 681 L 1036 681 L 1036 682 L 1036 721 L 1041 721 L 1041 681 L 1054 681 L 1054 678 L 1023 678 Z M 1061 678 L 1061 721 L 1065 721 L 1065 679 L 1061 678 Z M 1124 678 L 1108 721 L 1112 721 L 1116 711 L 1117 708 L 1135 708 L 1139 719 Q 1138 723 1143 721 L 1129 680 Q 1130 677 1124 678 Z " /><path fill="rgb(0,0,0)" stroke="rgb(0,0,0)" stroke-width="1" opacity="0" d="M 800.5 623 L 804 630.5 L 807 643 L 795.5 643 L 795 640.5 L 800.5 623 Z " /><path fill="rgb(0,0,0)" stroke="rgb(0,0,0)" stroke-width="1" opacity="0" d="M 1043 623 L 1055.5 623 L 1059 625.5 L 1061 629.5 L 1061 646.5 L 1059 652 L 1054.5 654 L 1043 654 L 1043 623 Z " /><path fill="rgb(0,0,0)" stroke="rgb(0,0,0)" stroke-width="1" opacity="0" d="M 1108.5 623 L 1117.5 623 L 1121 625 L 1123 629.5 L 1124 640.5 Q 1121.5 642 1123 647.5 L 1118.5 653 L 1109.5 654 L 1104 649.5 L 1102 642.5 L 1102 634.5 Q 1104.2 633.3 1103 628.5 L 1106.5 624 L 1108.5 623 Z " /><path fill="rgb(0,0,0)" stroke="rgb(0,0,0)" stroke-width="1" opacity="0" d="M 965.5 680 Q 973.8 679.8 977 684.5 L 980 691.5 L 980 707.5 Q 978.5 714 973.5 717 Q 970 719.5 962.5 718 L 956 712.5 L 954 707.5 L 954 691.5 L 958.5 683 L 965.5 680 Z " /><path fill="rgb(0,0,0)" stroke="rgb(0,0,0)" stroke-width="1" opacity="0" d="M 827 681 L 846.5 681 L 848 682.5 L 849 691.5 L 845.5 696 L 827 696 L 827 681 Z " /><path fill="rgb(0,0,0)" stroke="rgb(0,0,0)" stroke-width="1" opacity="0" d="M 865 681 L 881.5 681 L 885 684.5 Q 887.1 694.6 882.5 698 L 880.5 699 L 865 699 L 865 681 Z " /><path fill="rgb(0,0,0)" stroke="rgb(0,0,0)" stroke-width="1" opacity="0" d="M 911.5 681 L 920 705 L 903 704.5 L 911.5 681 Z " /><path fill="rgb(0,0,0)" stroke="rgb(0,0,0)" stroke-width="1" opacity="0" d="M 994 681 L 1009.5 681 L 1013 684.5 L 1014 686.5 L 1014 698.5 L 1010.5 704 L 1008.5 705 L 994 705 L 994 681 Z " /><path fill="rgb(0,0,0)" stroke="rgb(0,0,0)" stroke-width="1" opacity="0" d="M 1125.5 681 L 1134 705 L 1118.5 705 L 1118 702.5 L 1125.5 681 Z " /><path fill="rgb(0,0,0)" stroke="rgb(0,0,0)" stroke-width="1" opacity="0" d="M 827 699 L 845.5 699 L 849 702.5 L 850 712.5 L 846.5 718 L 827 718 L 827 699 Z " /><path fill="rgb(0,0,0)" stroke="rgb(0,0,0)" stroke-width="1" opacity="0.9764705882352941" d="M 973.5 345 L 1005 383.5 Q 996.4 394.4 982.5 400 L 967.5 404 L 952.5 404 Q 928.3 399.7 915 384.5 L 916 380.5 L 932.5 364 L 947.5 379 L 949 379 L 973.5 345 Z " /><path fill="rgb(0,0,0)" stroke="rgb(0,0,0)" stroke-width="1" opacity="0.9764705882352941" d="M 892.5 408 L 910.5 422 L 928.5 431 L 943.5 435 L 968.5 436 L 969.5 435 L 980.5 434 L 993.5 430 L 1007.5 423 Q 1018 417 1025.5 408 L 1028 408 L 1055 441.5 Q 1034.5 462 1004.5 473 L 979.5 479 Q 973.3 477.2 971.5 480 L 948.5 480 L 947.5 479 L 939.5 479 L 929.5 477 L 907.5 470 Q 882.4 459.6 865 441.5 L 865 439.5 L 892.5 408 Z " /><path fill="rgb(0,0,0)" stroke="rgb(0,0,0)" stroke-width="1" opacity="0.9764705882352941" d="M 843.5 465 Q 867.1 488.9 901.5 502 L 931.5 510 L 946.5 511 L 947.5 512 L 971.5 512 L 972.5 511 L 981.5 511 L 998.5 508 L 1025.5 499 L 1045.5 489 L 1076.5 466 L 1102 494.5 L 1103 497.5 Q 1073.8 526.3 1031.5 542 L 1007.5 549 L 984.5 553 L 975.5 553 L 974.5 554 L 945.5 554 L 944.5 553 L 934.5 553 L 933.5 552 L 921.5 551 L 900.5 546 L 871.5 535 Q 839.8 520.2 816 497.5 L 843.5 465 Z " /><path fill="rgb(0,0,0)" stroke="rgb(0,0,0)" stroke-width="1" opacity="0.9764705882352941" d="M 1110.5 616 L 1123.5 618 L 1129 622.5 Q 1133.7 629.8 1133 642.5 L 1131 650.5 L 1126.5 657 Q 1119.6 662.1 1105.5 660 L 1097 654.5 L 1093 643.5 L 1093 633.5 L 1096 623.5 L 1100.5 619 L 1110.5 616 Z M 1109 623 L 1107 624 L 1103 629 Q 1104 633 1102 635 L 1102 643 L 1104 650 L 1110 654 L 1119 653 L 1123 648 Q 1122 642 1124 641 L 1123 630 L 1121 625 L 1118 623 L 1109 623 Z " /><path fill="rgb(0,0,0)" stroke="rgb(0,0,0)" stroke-width="1" opacity="0.9764705882352941" d="M 1152.5 616 L 1163.5 617 L 1170 620.5 L 1173 625.5 L 1174 632 L 1164 632 L 1164 627.5 L 1161.5 624 Q 1158 621.5 1150.5 623 L 1146 626.5 Q 1145 631 1147.5 632 L 1168.5 638 L 1173 642.5 L 1174 648.5 L 1169.5 657 Q 1162.3 662.3 1147.5 660 Q 1141.8 658.8 1139 654.5 Q 1136.1 650.6 1137 644 L 1146 644 L 1146 648.5 L 1149.5 653 Q 1152.7 655.3 1159.5 654 L 1164 650.5 L 1165 647.5 L 1164 645 L 1156.5 642 L 1143.5 639 L 1138 634.5 L 1137 626.5 L 1140 620 L 1143.5 618 L 1152.5 616 Z " /><path fill="rgb(0,0,0)" stroke="rgb(0,0,0)" stroke-width="1" opacity="0.9764705882352941" d="M 744.5 617 L 754 617 L 754 620.5 L 763.5 653 L 773 617 L 781.5 617 L 782 619.5 L 770 660 L 757.5 660 L 757 658.5 L 744.5 617 Z " /><path fill="rgb(0,0,0)" stroke="rgb(0,0,0)" stroke-width="1" opacity="0.9764705882352941" d="M 794 617 L 807.5 617 L 808 619.5 L 821 660 L 812.5 660 L 812 658.5 L 809 649 L 793.5 649 L 793 650.5 L 790 660 L 781.5 660 L 781 657.5 L 794 617 Z M 801 623 L 795 641 L 796 643 L 807 643 L 804 631 L 801 623 Z " /><path fill="rgb(0,0,0)" stroke="rgb(0,0,0)" stroke-width="1" opacity="0.9764705882352941" d="M 826 617 L 834.5 617 L 835 617.5 L 835 654 L 853 654 L 853 660 L 826 660 L 826 617 Z " /><path fill="rgb(0,0,0)" stroke="rgb(0,0,0)" stroke-width="1" opacity="0.9764705882352941" d="M 858 617 L 866.5 617 L 867 617.5 L 867 654 L 885 654 L 885 660 L 858 660 L 858 617 Z " /><path fill="rgb(0,0,0)" stroke="rgb(0,0,0)" stroke-width="1" opacity="0.9764705882352941" d="M 890 617 L 920.5 617 L 921 617.5 L 921 623 L 899 623 L 899 635 L 918.5 635 L 919 635.5 L 919 641 L 899 641 L 899 652.5 L 900.5 654 L 921 654 L 921 659.5 L 920.5 660 L 890 660 L 890 617 Z " /><path fill="rgb(0,0,0)" stroke="rgb(0,0,0)" stroke-width="1" opacity="0.9764705882352941" d="M 943 617 L 957.5 617 L 958 620.5 L 966 650 Q 969 651.3 968 647.5 L 976 617 L 991 617 L 991 660 L 982.5 660 L 982 659.5 L 982 626.5 L 981 626.5 L 973 658 L 961.5 658 L 961 654.5 L 952.5 626 L 952 660 L 943.5 660 L 943 659.5 L 943 617 Z " /><path fill="rgb(0,0,0)" stroke="rgb(0,0,0)" stroke-width="1" opacity="0.9764705882352941" d="M 998 617 L 1027.5 617 L 1028 617.5 L 1028 623 L 1007 623 L 1007 635 L 1026.5 635 L 1027 635.5 L 1027 641 L 1007 641 L 1007 654 L 1027.5 654 L 1028 654.5 L 1028 660 L 998 660 L 998 617 Z " /><path fill="rgb(0,0,0)" stroke="rgb(0,0,0)" stroke-width="1" opacity="0.9764705882352941" d="M 1034 617 L 1059.5 617 L 1067 621.5 L 1070 629.5 L 1070 647.5 L 1065.5 657 L 1059.5 660 L 1034 660 L 1034 617 Z M 1043 623 L 1043 654 L 1055 654 L 1059 652 L 1061 647 L 1061 630 L 1059 626 L 1056 623 L 1043 623 Z " /><path fill="rgb(0,0,0)" stroke="rgb(0,0,0)" stroke-width="1" opacity="0.9764705882352941" d="M 1077 617 L 1085.5 617 L 1086 617.5 L 1086 660 L 1077.5 660 L 1077 659.5 L 1077 617 Z " /><path fill="rgb(0,0,0)" stroke="rgb(0,0,0)" stroke-width="1" opacity="0.9764705882352941" d="M 967.5 672 L 970 672.5 L 965 676.5 L 973.5 678 L 981 683.5 Q 986.2 691.8 984 707.5 Q 982.8 714.3 978.5 718 Q 973.3 722.8 961.5 721 L 954 716.5 Q 947.5 708.5 950 691.5 Q 951.2 683.7 956.5 680 L 965 677.5 L 964 675.5 L 967.5 672 Z M 966 680 L 959 683 L 954 692 L 954 708 L 956 713 L 963 718 Q 970 720 974 717 Q 978 714 980 708 L 980 692 L 977 685 Q 974 680 966 680 Z " /><path fill="rgb(0,0,0)" stroke="rgb(0,0,0)" stroke-width="1" opacity="0.9764705882352941" d="M 1088.5 677 L 1096.5 678 L 1103 683.5 Q 1106 687.8 1105 695 L 1101 695 L 1101 688.5 L 1096.5 682 Q 1093.6 679.4 1087.5 680 L 1080 684.5 L 1078 689.5 L 1078 709.5 L 1083.5 717 Q 1087 719.5 1094.5 718 L 1099 714.5 Q 1101.9 710.6 1101 704 L 1105 704 L 1105 710.5 L 1099.5 719 Q 1094.8 722.8 1084.5 721 L 1077 716.5 L 1074 709.5 L 1073 696.5 L 1075 686.5 L 1079.5 680 L 1088.5 677 Z " /><path fill="rgb(0,0,0)" stroke="rgb(0,0,0)" stroke-width="1" opacity="0.9764705882352941" d="M 777 678 L 802.5 678 L 803 681 L 781 681 L 781 699 L 800.5 699 L 801 702 L 781 702 L 781 720.5 L 777 721 L 777 678 Z " /><path fill="rgb(0,0,0)" stroke="rgb(0,0,0)" stroke-width="1" opacity="0.9764705882352941" d="M 810 678 L 814 678.5 L 814 721 L 810 720.5 L 810 678 Z " /><path fill="rgb(0,0,0)" stroke="rgb(0,0,0)" stroke-width="1" opacity="0.9764705882352941" d="M 823 678 L 848.5 678 L 851 679 Q 854.1 682.6 853 691.5 L 851 696 L 848 697.5 L 852 700.5 Q 855 704.5 854 712.5 L 852 719 L 848.5 721 L 823 721 L 823 678 Z M 827 681 L 827 696 L 846 696 L 849 692 L 848 683 L 847 681 L 827 681 Z M 827 699 L 827 718 L 847 718 L 850 713 L 849 703 L 846 699 L 827 699 Z " /><path fill="rgb(0,0,0)" stroke="rgb(0,0,0)" stroke-width="1" opacity="0.9764705882352941" d="M 861 678 L 883.5 678 L 888 681.5 L 890 690.5 L 888 697.5 L 884.5 701 Q 881.2 699.9 882 702.5 L 890 720.5 L 885 721 L 878 702 L 865 702 L 865 720.5 L 861 721 L 861 678 Z M 865 681 L 865 699 L 881 699 L 883 698 Q 887 695 885 685 L 882 681 L 865 681 Z " /><path fill="rgb(0,0,0)" stroke="rgb(0,0,0)" stroke-width="1" opacity="0.9764705882352941" d="M 909.5 678 Q 915.6 676.8 915 679.5 L 929 721 L 925 721 L 925 719.5 L 921 708 L 902.5 708 L 902 710.5 L 897.5 721 Q 893.1 722.5 894 719.5 L 896 716.5 L 906 684.5 L 909.5 678 Z M 912 681 L 903 705 L 920 705 L 912 681 Z " /><path fill="rgb(0,0,0)" stroke="rgb(0,0,0)" stroke-width="1" opacity="0.9764705882352941" d="M 990 678 L 1011.5 678 L 1016 681.5 Q 1019.9 687.6 1018 699.5 L 1012.5 707 L 1009.5 708 L 994 708 L 994 720.5 L 990 721 L 990 678 Z M 994 681 L 994 705 L 1009 705 L 1011 704 L 1014 699 L 1014 687 L 1013 685 L 1010 681 L 994 681 Z " /><path fill="rgb(0,0,0)" stroke="rgb(0,0,0)" stroke-width="1" opacity="0.9764705882352941" d="M 1023 678 L 1053.5 678 L 1054 681 L 1041 681 L 1041 720.5 L 1036 721 L 1036 681.5 L 1035.5 681 L 1023.5 681 L 1023 678 Z " /><path fill="rgb(0,0,0)" stroke="rgb(0,0,0)" stroke-width="1" opacity="0.9764705882352941" d="M 1061 678 L 1065 678.5 L 1065 721 L 1061 720.5 L 1061 678 Z " /><path fill="rgb(0,0,0)" stroke="rgb(0,0,0)" stroke-width="1" opacity="0.9764705882352941" d="M 1123.5 678 Q 1129.6 676.8 1129 679.5 L 1143 721 Q 1137.8 723.1 1139 718.5 L 1134.5 708 L 1116.5 708 L 1116 710.5 L 1111.5 721 L 1108 720.5 L 1123.5 678 Z M 1126 681 L 1118 703 L 1119 705 L 1134 705 L 1126 681 Z " /></svg>