<?xml version="1.0" standalone="no"?>
<!DOCTYPE svg PUBLIC "-//W3C//DTD SVG 20010904//EN"
 "http://www.w3.org/TR/2001/REC-SVG-20010904/DTD/svg10.dtd">
<svg version="1.0" xmlns="http://www.w3.org/2000/svg"
 width="521.000000pt" height="450.000000pt" viewBox="0 0 521.000000 450.000000"
 preserveAspectRatio="xMidYMid meet">

<g transform="translate(0.000000,450.000000) scale(0.100000,-0.100000)"
fill="#000000" stroke="none">
<path d="M2630 4025 c-63 -86 -121 -163 -128 -172 -11 -15 -20 -9 -90 60 l-78
77 -87 -91 c-48 -50 -87 -95 -87 -99 0 -16 77 -84 135 -119 229 -139 517 -114
710 62 55 49 58 55 44 73 -17 25 -300 364 -302 364 -1 -1 -54 -70 -117 -155z"/>
<path d="M1889 3497 c-24 -30 -86 -102 -136 -161 -51 -58 -93 -110 -93 -115 0
-12 106 -102 184 -155 143 -97 307 -168 487 -208 134 -29 395 -32 529 -5 171
34 343 103 482 192 73 47 218 164 218 175 0 7 -265 316 -278 324 -4 2 -35 -19
-69 -47 -348 -294 -832 -301 -1187 -17 -48 39 -88 70 -90 70 -1 0 -22 -24 -47
-53z"/>
<path d="M1429 2962 c-8 -9 -70 -82 -138 -161 -100 -118 -120 -147 -109 -155
8 -6 40 -33 70 -59 104 -90 292 -214 423 -280 166 -83 409 -159 612 -192 136
-23 384 -30 518 -16 443 48 821 206 1153 483 45 38 82 73 82 78 0 10 -243 294
-260 305 -6 4 -45 -22 -88 -58 -298 -247 -641 -379 -1022 -394 -428 -16 -833
126 -1160 408 -61 52 -68 56 -81 41z"/>
<path d="M4080 1459 c-97 -19 -135 -79 -135 -214 0 -114 20 -159 85 -192 52
-27 151 -31 203 -9 100 41 137 212 74 338 -34 67 -124 98 -227 77z m121 -72
c59 -45 62 -225 4 -274 -18 -16 -39 -23 -66 -23 -81 0 -120 78 -104 206 9 77
37 104 102 104 26 0 55 -6 64 -13z"/>
<path d="M4515 1463 c-85 -11 -135 -60 -135 -133 0 -53 40 -82 158 -114 71
-20 106 -34 113 -48 23 -43 -18 -78 -92 -78 -47 0 -89 35 -89 75 0 23 -3 25
-46 25 l-47 0 6 -40 c12 -93 65 -124 197 -118 99 5 131 21 153 76 18 46 12 94
-17 121 -12 11 -62 31 -112 44 -114 31 -134 42 -134 71 0 37 30 56 88 56 59 0
92 -23 92 -65 0 -23 3 -25 49 -25 l49 0 -9 41 c-18 80 -48 102 -149 112 -25 2
-58 2 -75 0z"/>
<path d="M455 1448 c2 -7 27 -89 55 -183 28 -93 56 -185 61 -202 10 -33 11
-33 73 -33 l62 0 62 208 c34 114 62 210 62 215 0 4 -20 7 -44 7 l-43 0 -49
-180 c-27 -99 -51 -174 -55 -167 -3 6 -26 87 -50 179 l-44 168 -47 0 c-34 0
-46 -4 -43 -12z"/>
<path d="M887 1253 c-37 -115 -67 -211 -67 -215 0 -5 20 -8 44 -8 l45 0 16 55
16 55 79 0 79 0 16 -55 16 -55 44 0 c25 0 45 3 45 6 0 4 -30 101 -67 215 l-67
209 -66 0 -66 0 -67 -207z m167 46 c14 -48 26 -90 26 -93 0 -3 -28 -6 -61 -6
-54 0 -61 2 -57 18 31 112 54 180 59 174 4 -4 19 -46 33 -93z"/>
<path d="M1270 1245 l0 -215 135 0 135 0 0 30 0 30 -90 0 -90 0 0 185 0 185
-45 0 -45 0 0 -215z"/>
<path d="M1590 1245 l0 -215 135 0 135 0 0 30 0 30 -90 0 -90 0 0 185 0 185
-45 0 -45 0 0 -215z"/>
<path d="M1910 1245 l0 -215 155 0 155 0 0 30 0 30 -110 0 -110 0 0 65 0 65
100 0 100 0 0 30 0 30 -100 0 -100 0 0 60 0 60 110 0 110 0 0 30 0 30 -155 0
-155 0 0 -215z"/>
<path d="M2440 1245 l0 -215 45 0 45 0 1 178 0 177 47 -167 47 -168 55 0 56 0
44 162 45 162 3 -172 2 -172 45 0 45 0 0 215 0 215 -73 0 -72 0 -44 -165 c-24
-91 -47 -165 -50 -165 -4 0 -27 74 -51 165 l-44 165 -73 0 -73 0 0 -215z"/>
<path d="M2990 1245 l0 -215 150 0 150 0 0 30 0 30 -105 0 -105 0 0 65 0 65
100 0 100 0 0 30 0 30 -100 0 -100 0 0 60 0 60 105 0 105 0 0 30 0 30 -150 0
-150 0 0 -215z"/>
<path d="M3350 1245 l0 -215 126 0 c206 0 229 21 229 215 0 195 -21 215 -230
215 l-125 0 0 -215z m241 136 c21 -17 24 -29 28 -107 6 -151 -16 -184 -124
-184 l-55 0 0 155 0 155 64 0 c48 0 70 -5 87 -19z"/>
<path d="M3780 1245 l0 -215 45 0 45 0 0 215 0 215 -45 0 -45 0 0 -215z"/>
<path d="M2665 890 c-27 -30 -11 -35 21 -6 21 18 24 25 13 26 -9 0 -24 -9 -34
-20z"/>
<path d="M2633 850 c-92 -21 -118 -68 -118 -216 0 -101 2 -114 25 -146 31 -46
77 -68 141 -68 62 0 118 27 144 72 17 28 20 51 20 143 0 93 -3 115 -20 145
-35 58 -115 88 -192 70z m100 -34 c53 -22 70 -59 75 -159 7 -147 -30 -207
-127 -207 -58 0 -88 18 -111 65 -23 48 -27 163 -8 227 21 71 99 105 171 74z"/>
<path d="M3870 850 c-91 -16 -123 -73 -122 -215 1 -154 37 -206 148 -213 43
-3 70 1 92 12 58 30 100 156 52 156 -15 0 -20 -7 -20 -25 0 -38 -25 -92 -48
-104 -12 -6 -41 -11 -66 -11 -36 0 -52 6 -78 29 l-33 29 -3 114 c-3 136 10
174 71 197 77 29 157 -25 157 -106 0 -26 4 -33 20 -33 43 0 13 114 -40 151
-29 20 -80 28 -130 19z"/>
<path d="M780 635 c0 -208 1 -215 20 -215 19 0 20 7 20 95 l0 95 100 0 c82 0
100 3 100 15 0 12 -18 15 -100 15 l-100 0 0 90 0 90 110 0 c91 0 110 3 110 15
0 13 -21 15 -130 15 l-130 0 0 -215z"/>
<path d="M1110 635 c0 -208 1 -215 20 -215 19 0 20 7 20 215 0 208 -1 215 -20
215 -19 0 -20 -7 -20 -215z"/>
<path d="M1240 635 l0 -215 124 0 c109 0 126 2 149 20 48 38 46 169 -4 204
-17 12 -18 16 -6 23 41 24 50 114 16 157 -20 26 -22 26 -150 26 l-129 0 0
-215z m250 166 c15 -29 12 -83 -6 -109 -14 -20 -23 -22 -110 -22 l-94 0 0 75
0 75 100 0 c88 0 100 -2 110 -19z m-4 -182 c14 -16 19 -36 19 -79 0 -84 -8
-90 -126 -90 l-99 0 0 95 0 95 93 0 c83 0 96 -3 113 -21z"/>
<path d="M1620 635 c0 -207 1 -215 20 -215 18 0 20 8 22 96 l3 97 60 0 60 0
39 -97 c33 -82 41 -96 61 -96 l23 0 -32 78 c-49 114 -50 119 -27 125 10 2 27
16 36 31 33 50 13 173 -30 190 -9 3 -66 6 -126 6 l-109 0 0 -215z m223 168
c27 -32 26 -114 -3 -143 -17 -17 -33 -20 -100 -20 l-80 0 0 90 0 90 83 0 c67
0 87 -3 100 -17z"/>
<path d="M2089 823 c-6 -16 -37 -104 -69 -198 -32 -93 -61 -178 -65 -188 -6
-16 -4 -18 16 -15 19 2 27 15 43 66 l20 62 91 0 c103 0 100 2 125 -89 8 -30
16 -41 30 -41 11 0 20 4 20 8 0 5 -31 100 -70 211 -38 112 -70 205 -70 207 0
2 -14 4 -30 4 -24 0 -33 -6 -41 -27z m81 -118 c18 -55 35 -106 38 -112 3 -10
-17 -13 -81 -13 l-85 0 41 119 c23 66 45 117 48 113 4 -4 21 -52 39 -107z"/>
<path d="M2910 635 c0 -208 1 -215 20 -215 18 0 20 7 20 64 l0 64 90 4 c82 3
92 5 117 30 47 47 46 196 -2 244 -23 22 -31 24 -135 24 l-110 0 0 -215z m220
158 c19 -24 21 -38 18 -102 -5 -97 -20 -111 -124 -111 l-74 0 0 120 0 120 79
0 c75 0 81 -2 101 -27z"/>
<path d="M3240 835 c0 -12 14 -15 70 -15 l70 0 0 -200 c0 -193 1 -200 20 -200
19 0 20 7 20 200 l0 200 65 0 c51 0 65 3 65 15 0 13 -24 15 -155 15 -131 0
-155 -2 -155 -15z"/>
<path d="M3620 635 c0 -208 1 -215 20 -215 19 0 20 7 20 215 0 208 -1 215 -20
215 -19 0 -20 -7 -20 -215z"/>
<path d="M4229 823 c-6 -16 -39 -113 -75 -216 -60 -178 -63 -188 -42 -185 17
2 26 17 42 66 l20 63 95 -3 95 -3 20 -62 c15 -47 25 -63 38 -63 10 0 18 4 18
9 0 6 -31 101 -70 212 -38 112 -70 204 -70 206 0 2 -14 3 -30 3 -24 0 -33 -6
-41 -27z m81 -118 c18 -55 35 -106 38 -112 3 -10 -16 -13 -77 -13 -45 0 -81 3
-81 7 0 22 75 232 81 225 4 -4 21 -52 39 -107z"/>
</g>
</svg>
